<?xml version="1.0" encoding="UTF-8" standalone="no"?>
<!-- Created with Inkscape (http://www.inkscape.org/) -->

<svg
   width="210mm"
   height="297mm"
   viewBox="0 0 210 297"
   version="1.1"
   id="svg5"
   xml:space="preserve"
   inkscape:version="1.2.1 (9c6d41e410, 2022-07-14)"
   sodipodi:docname="POSTER.svg"
   inkscape:export-filename="POSTER3.png"
   inkscape:export-xdpi="96"
   inkscape:export-ydpi="96"
   xmlns:inkscape="http://www.inkscape.org/namespaces/inkscape"
   xmlns:sodipodi="http://sodipodi.sourceforge.net/DTD/sodipodi-0.dtd"
   xmlns:xlink="http://www.w3.org/1999/xlink"
   xmlns="http://www.w3.org/2000/svg"
   xmlns:svg="http://www.w3.org/2000/svg"><sodipodi:namedview
     id="namedview7"
     pagecolor="#505050"
     bordercolor="#eeeeee"
     borderopacity="1"
     inkscape:showpageshadow="0"
     inkscape:pageopacity="0"
     inkscape:pagecheckerboard="0"
     inkscape:deskcolor="#505050"
     inkscape:document-units="mm"
     showgrid="false"
     inkscape:zoom="0.23384891"
     inkscape:cx="-248.0234"
     inkscape:cy="449.00787"
     inkscape:window-width="1366"
     inkscape:window-height="705"
     inkscape:window-x="-8"
     inkscape:window-y="-8"
     inkscape:window-maximized="1"
     inkscape:current-layer="layer2" /><defs
     id="defs2"><linearGradient
       inkscape:collect="always"
       id="linearGradient3874"><stop
         style="stop-color:#000000;stop-opacity:0"
         offset="0"
         id="stop3870" /><stop
         style="stop-color:#0b200c;stop-opacity:0;"
         offset="1"
         id="stop3872" /></linearGradient><rect
       x="51.404197"
       y="72.570631"
       width="692.44477"
       height="982.7273"
       id="rect1828" /><linearGradient
       inkscape:collect="always"
       xlink:href="#linearGradient3874"
       id="linearGradient3876"
       x1="103.87368"
       y1="-0.140945"
       x2="101.48581"
       y2="398.12192"
       gradientUnits="userSpaceOnUse" /></defs><g
     inkscape:label="Layer 1"
     inkscape:groupmode="layer"
     id="layer1"
     style="display:inline" /><g
     inkscape:groupmode="layer"
     id="layer2"
     inkscape:label="Layer 2"><rect
       style="display:inline;opacity:1;fill:url(#linearGradient3876);fill-opacity:1;stroke:#000000;stroke-width:0.00014371;stroke-dasharray:none"
       id="rect1129"
       width="235.21199"
       height="340.01736"
       x="-10.400531"
       y="-20.801062" /><rect
       style="opacity:1;fill:none;fill-opacity:1;stroke:#ffffff;stroke-width:6;stroke-opacity:1;stroke-dasharray:none"
       id="rect1772"
       width="210.41074"
       height="298.41522"
       x="0"
       y="0" /><path
       style="opacity:1;fill:none;fill-opacity:1;stroke:#ffffff;stroke-width:3;stroke-opacity:1;stroke-dasharray:none"
       d="m 155.89381,139.86037 c 0,0 4.2075,-5.445 12.16285,-2.79321 0.38893,0.28285 0,0 0,0 0,0 6.01072,2.40428 5.48036,10.04142 0,0 -0.17678,7.6725 -7.92,12.83465 l -1.90928,2.08607 c 0,0 4.24285,3.14678 4.84393,5.97536 0,0 0.12375,0.38892 0.19446,1.21982 0,0 1.34357,0.88393 2.05071,0.99 0.053,0.26518 1.39661,-0.21215 2.0684,2.26285 0,0 0.2936,1.03152 1.08114,1.61905 l 1.57064,1.51006 c 0,0 1.87393,1.7325 2.43965,2.12143 l 2.43964,1.55571 1.83857,1.30822 2.51036,1.90928 c 0,0 1.7325,1.27286 2.08607,2.61643 l 1.66178,2.68715 0.95465,1.59107 c 0,0 1.09607,1.69714 0.84857,3.14678 0,0 -0.10607,2.51036 -3.2175,2.58107 0,0 -4.455,0.35358 -8.02607,-3.25285 l -2.15679,-3.07607 c 0,0 -2.19214,-2.2275 -3.57107,-2.65179 0,0 -2.69117,-2.00847 -3.3162,-3.20853 0,0 -1.15006,-2.85015 -3.17517,-3.57519 l -0.87504,-0.17501 c 0,0 -1.9376,1.31257 -6.48783,1.25007 0,0 -3.56268,2.82514 -7.8629,2.0251 0,0 -4.45023,1.50008 -9.6505,0.70004 0,0 -1.80009,-0.45003 -5.70029,1.00005 0,0 -7.9004,4.50023 -8.20041,4.75024 0,0 -1.35007,1.10006 -2.65014,1.25006 0,0 -5.05026,-0.50002 -4.40022,5.30027 l -0.65004,1.50008 c 0,0 -1.15006,2.15011 -0.40002,4.85025 0,0 0.65004,4.25022 -1.40007,7.75039 0,0 -1.60008,3.50018 -0.60003,9.15047 0,0 0.75004,3.45018 0.10001,5.50028 0,0 -0.50003,2.85015 -0.10001,4.45023 0,0 2.96957,21.0887 -0.56614,31.27156 0,0 -3.67714,6.36428 0.91929,12.375 0,0 1.09607,0.63643 1.27285,0.67178 0.17679,0.0354 2.68715,1.16679 2.93465,1.485 0.2475,0.31822 1.69714,1.09607 2.29821,1.34357 0.60107,0.2475 5.1975,1.55572 5.12679,2.65179 0,0 1.09607,2.43964 -2.7225,3.7125 0,0 -1.87393,0.53036 -7.28358,-1.485 0,0 -0.91928,-0.77786 -7.14214,-0.45964 0,0 -3.78321,0.17678 -4.52571,-1.76786 0,0 -0.84857,-1.87393 0.38893,-3.64179 0,0 0.63642,-2.19214 0.60107,-3.85392 0,0 0.70714,-6.50572 -1.27286,-7.28358 0,0 -1.16679,-0.26517 -1.69714,-0.14142 0,0 -0.43234,-8.47664 -2.38244,-11.97682 0,0 -2.40012,-4.85025 -2.20011,-11.05057 0,0 -1.00388,-8.01619 -1.993882,-10.42047 0,0 -1.13143,-4.80857 0.10607,-6.96536 0,0 1.308212,-8.83928 0.0354,-11.27893 0,0 -1.83861,-4.31357 -1.34361,-7.92 0.495,-3.60643 0,-7.21285 0,-7.63714 0,0 -0.84858,-8.98071 -2.050718,-11.45571 0,0 -12.87,-16.68858 -16.971429,-19.02215 L 66.75845,151.52823 c 0,0 -10.112143,-9.97072 -12.233572,-10.96072 0,0 -6.222857,-5.72785 -9.617143,-6.50571 0,0 -0.318214,-0.2475 -0.2475,-0.67179 0,0 -0.424286,-1.87392 -2.156786,-2.43964 0,0 0.495001,-0.95464 0.813215,-1.02536 0,0 -1.414286,-2.86393 -9.829286,-4.77321 0,0 -4.066071,-1.37893 -4.561071,-1.55572 l -8.379643,-2.19214 c 0,0 -5.091429,-0.2475 -5.303572,-2.65178 0,0 -0.353571,-2.58108 3.465,-5.48036 0,0 2.121429,-1.55572 6.010715,-0.70714 l 4.596428,0.95464 2.757857,0.495 c 0,0 1.98,0.2475 2.298215,0.28286 0.318214,0.0354 2.156785,0.17678 3.606428,0.21214 1.449643,0.0354 4.278215,-1.02536 6.505715,1.94464 0,0 1.2375,1.44964 0.03536,4.56107 l 5.338925,3.465 c 0,0 2.581072,-1.90928 3.7125,-1.485 0,0 1.697143,-0.45964 3.889286,3.07607 0,0 0.7425,1.06072 2.121429,1.27286 0,0 4.136785,0.77786 5.798571,2.82857 0,0 3.677143,3.7125 4.242857,4.73786 l 3.429643,4.13679 c 0,0 3.252857,4.34892 7.142143,5.6925 0,0 4.136786,1.2375 11.385,5.65714 l 4.101428,2.19214 c 0,0 3.464996,1.76786 5.232858,2.19214 0,0 3.88929,1.90929 4.38429,2.61643 l 2.68714,2.05072 2.05071,1.55571 c 0,0 4.73786,3.81857 8.55643,4.31357 0,0 3.60643,0.77786 4.52572,1.55572 0,0 1.0386,0.46031 -0.0365,-0.68975 0,0 -2.32508,-1.30007 -4.27518,-1.57508 0,0 -5.50028,-1.9751 -5.77529,-2.52513 0,0 -3.27517,-1.77509 -3.8252,-4.37522 l -0.40002,-1.15006 c 0,0 -1.57508,-2.65014 1.35007,-3.9002 0,0 2.60014,-1.30007 5.55029,-1.75009 l 3.30016,-0.75004 c 0,0 2.97516,-1.37507 6.77535,-0.37502 3.80019,1.00006 7.17537,-1.00005 7.17537,-1.00005 0,0 1.62508,-1.45007 5.07525,-0.05 3.45018,1.40007 3.7502,1.50008 3.7502,1.50008 0,0 0.72503,0.37502 2.67513,0.35002 0,0 2.25012,-0.32502 2.90015,0.25001 0,0 0.7754,0.50106 1.74772,0.42151 0.97232,-0.0796 0.82205,-0.0884 0.82205,-0.0884 0,0 3.73902,-9.25473 5.96652,-11.30544 z"
       id="path357"
       sodipodi:nodetypes="ccccccccccccccccccccccccccccccccccccccccccsssccccccccccccccscccccccc" /><text
       xml:space="preserve"
       transform="matrix(0.30021233,0,0,0.33839027,-8.3053031,-16.597495)"
       id="text1826"
       style="font-size:74.6667px;white-space:pre;shape-inside:url(#rect1828);opacity:1;fill:none;fill-opacity:1;stroke:#ffffff;stroke-width:22.6772;stroke-dasharray:none;stroke-opacity:1"><tspan
         x="51.404297"
         y="142.42617"
         id="tspan6526"><tspan
           style="font-size:76.5686px"
           id="tspan6524">&quot;Strength is the </tspan></tspan><tspan
         x="51.404297"
         y="238.13693"
         id="tspan6530"><tspan
           style="font-size:76.5686px"
           id="tspan6528">only thing that </tspan></tspan><tspan
         x="51.404297"
         y="333.84768"
         id="tspan6534"><tspan
           style="font-size:76.5686px"
           id="tspan6532">matters in this </tspan></tspan><tspan
         x="51.404297"
         y="429.55843"
         id="tspan6538"><tspan
           style="font-size:76.5686px"
           id="tspan6536">world, everything </tspan></tspan><tspan
         x="51.404297"
         y="525.26919"
         id="tspan6542"><tspan
           style="font-size:76.5686px"
           id="tspan6540">else is s delusion </tspan></tspan><tspan
         x="51.404297"
         y="620.97994"
         id="tspan6548"><tspan
           style="font-size:76.5686px"
           id="tspan6544">for weak</tspan><tspan
           style="fill:#000000;stroke:none"
           id="tspan6546">.&quot;</tspan></tspan></text></g></svg>
